<svg xmlns="http://www.w3.org/2000/svg" xmlns:xlink="http://www.w3.org/1999/xlink"><symbol fill="currentColor" viewBox="0 0 15 15" id="arrow-bottom"><path fill-rule="evenodd" clip-rule="evenodd" d="M6.875 11.616V1.25h1.25v10.366l3.933-3.933.884.884L7.5 14.009 2.058 8.567l.884-.884 3.933 3.933Z"/></symbol><symbol fill="currentColor" viewBox="0 0 15 15" id="arrow-top"><path fill-rule="evenodd" clip-rule="evenodd" d="M8.125 3.384V13.75h-1.25V3.384L2.942 7.317l-.884-.884L7.5.991l5.442 5.442-.884.884-3.933-3.933Z"/></symbol><symbol fill="currentColor" viewBox="0 0 15 15" id="copy"><path fill-rule="evenodd" clip-rule="evenodd" d="M10 10v2.5c0 .72-.53 1.25-1.25 1.25H2.5c-.72 0-1.25-.53-1.25-1.25V6.25C1.25 5.53 1.78 5 2.5 5H5V2.5c0-.72.53-1.25 1.25-1.25h6.25c.72 0 1.25.53 1.25 1.25v6.25c0 .72-.53 1.25-1.25 1.25H10Zm-1.25 0h-2.5C5.53 10 5 9.47 5 8.75v-2.5H2.5v6.25h6.25V10Zm-2.5-7.5v6.25h6.25V2.5H6.25Z"/></symbol><symbol fill="currentColor" viewBox="0 0 26 25" id="headline"><path fill-rule="evenodd" clip-rule="evenodd" d="M4.667 2.083h16.666c1.15 0 2.084.933 2.084 2.084v4.166c0 1.15-.933 2.084-2.084 2.084H4.667a2.083 2.083 0 0 1-2.084-2.084V4.167c0-1.15.933-2.084 2.084-2.084Zm0 2.084v4.166h16.666V4.167H4.667Zm18.75 12.5v2.083H2.583v-2.083h20.834Zm0 4.166v2.084H2.583v-2.084h20.834Z"/><path d="M23.417 18.75v-2.083H2.583v2.083h20.834Z"/><path fill-rule="evenodd" clip-rule="evenodd" d="M23.417 12.5v2.083H2.583V12.5h20.834Z"/></symbol><symbol fill="currentColor" viewBox="0 0 26 25" id="image"><path fill-rule="evenodd" clip-rule="evenodd" d="m4.667 16.235 4.166-4.166 3.646 3.645 6.771-6.77 2.083 2.083v-6.86H4.667v12.068Zm0 2.947v1.651h9.985l-5.819-5.818-4.166 4.166Zm12.931 1.651h3.735v-6.86L19.25 11.89l-5.298 5.297 3.646 3.646ZM4.667 2.083h16.666c1.15 0 2.084.933 2.084 2.084v16.666c0 1.15-.933 2.084-2.084 2.084H4.667a2.083 2.083 0 0 1-2.084-2.084V4.167c0-1.15.933-2.084 2.084-2.084Zm7.291 3.125a3.125 3.125 0 1 1 0 6.25 3.125 3.125 0 0 1 0-6.25Zm0 2.084a1.042 1.042 0 1 0 0 2.083 1.042 1.042 0 0 0 0-2.083Z"/></symbol><symbol fill="currentColor" viewBox="0 0 26 25" id="text-align-left"><path fill-rule="evenodd" clip-rule="evenodd" d="M17.167 17.708v2.084H2.583v-2.084h14.584Zm6.25-4.166v2.083H2.583v-2.083h20.834Zm-6.25-4.167v2.083H2.583V9.375h14.584Zm6.25-4.167v2.084H2.583V5.208h20.834Z"/></symbol><symbol fill="currentColor" viewBox="0 0 15 15" id="trash"><path d="M12.656 1.875H9.844V.938A.937.937 0 0 0 8.906 0H6.094a.937.937 0 0 0-.938.938v.937H2.344a.937.937 0 0 0-.938.938v.937c0 .518.42.937.937.938h10.314c.517-.001.937-.42.937-.938v-.938a.937.937 0 0 0-.938-.937Zm-3.75 0H6.094v-.469c0-.258.21-.469.469-.469h1.875c.258 0 .468.21.468.47v.468Zm-6.562 11.25c0 1.036.84 1.875 1.875 1.875h6.562c1.036 0 1.875-.84 1.875-1.875v-7.5H2.344v7.5Zm7.031-6.094a.469.469 0 0 1 .938 0v5.625a.469.469 0 0 1-.938 0V7.031Zm-2.344 0a.469.469 0 0 1 .938 0v5.625a.469.469 0 0 1-.938 0V7.031Zm-2.343 0a.469.469 0 0 1 .937 0v5.625a.469.469 0 0 1-.937 0V7.031Z"/></symbol></svg>