<svg width="15" height="15" viewBox="0 0 15 15" fill="none" xmlns="http://www.w3.org/2000/svg">
<path fill-rule="evenodd" clip-rule="evenodd" d="M10 10V12.5C10 13.2202 9.47018 13.75 8.75 13.75H2.5C1.77982 13.75 1.25 13.2202 1.25 12.5V6.25C1.25 5.52982 1.77982 5 2.5 5H5V2.5C5 1.77982 5.52982 1.25 6.25 1.25H12.5C13.2202 1.25 13.75 1.77982 13.75 2.5V8.75C13.75 9.47018 13.2202 10 12.5 10H10ZM8.75 10H6.25C5.52982 10 5 9.47018 5 8.75V6.25H2.5V12.5H8.75V10ZM6.25 2.5V8.75H12.5V2.5H6.25Z" fill="white"/>
</svg>
